<svg width="80" height="86" viewBox="0 0 80 86" fill="none" xmlns="http://www.w3.org/2000/svg">
<path d="M60 29.1855V37.248C60 37.9871 60.5625 38.5918 61.25 38.5918H68.75C69.4375 38.5918 70 37.9871 70 37.248V29.1855C70 28.4465 69.4375 27.8418 68.75 27.8418H61.25C60.9185 27.8418 60.6005 27.9834 60.3661 28.2354C60.1317 28.4874 60 28.8292 60 29.1855ZM67.5 35.9043H62.5V30.5293H67.5V35.9043Z" fill="#BDBDBD"/>
<path d="M67.8125 14.4453V14.1094H62.1875V14.4453C62.1875 15.7286 62.95 18.5437 64.0625 18.967L64.025 19.6053C64.025 19.9614 64.0062 20.2033 64.1062 20.4586C64.2687 20.8819 64.7125 21.1775 65 21.3052C65.475 21.5202 65.9375 21.9098 65.9375 22.4675C65.9375 23.0252 65.5187 23.4753 65 23.4753C64.4812 23.4753 64.0625 23.0252 64.0625 22.4675C64.0625 22.192 63.9875 22.0106 63.8812 21.8359C63.8125 21.7217 63.6937 21.6411 63.5437 21.5941C63.1312 21.4798 62.75 21.5941 62.5063 21.9098C62.2063 22.2928 62.1625 22.8975 62.3875 23.4484C62.5625 23.865 62.8437 24.2681 63.2562 24.6847C63.7687 25.2088 64.4 25.4909 65.0313 25.4909H65.0437C66.5375 25.4842 67.7812 24.1606 67.8187 22.5548C67.8625 20.6534 66.4687 20.3108 65.9437 19.6322C65.75 19.3836 65.9437 18.9737 65.9437 18.9737C67.05 18.5437 67.8125 15.7286 67.8125 14.4453Z" fill="#BDBDBD"/>
<path d="M28.75 26.875H31.25C31.9375 26.875 32.5 27.4797 32.5 28.2188V32.25H47.5V28.2188C47.5 27.4797 48.0625 26.875 48.75 26.875H51.25C51.9375 26.875 52.5 27.4797 52.5 28.2188V45.6875H67.5V45.0156C67.5 43.9003 68.3375 43 69.375 43H70.625C71.6625 43 72.5 43.9003 72.5 45.0156V77.9375H27.5V28.2188C27.5 27.4797 28.0625 26.875 28.75 26.875Z" fill="url(#paint0_radial)"/>
<path d="M53.75 72.5625H66.25C66.9375 72.5625 67.5 71.9578 67.5 71.2188V65.8438C67.5 65.1047 66.9375 64.5 66.25 64.5H53.75C53.0625 64.5 52.5 65.1047 52.5 65.8438V71.2188C52.5 71.9578 53.0625 72.5625 53.75 72.5625Z" fill="#455A64"/>
<path d="M53.75 59.125H66.25C66.9375 59.125 67.5 58.5203 67.5 57.7812V52.4062C67.5 51.6672 66.9375 51.0625 66.25 51.0625H53.75C53.0625 51.0625 52.5 51.6672 52.5 52.4062V57.7812C52.5 58.5203 53.0625 59.125 53.75 59.125Z" fill="#455A64"/>
<path d="M33.75 59.125H46.25C46.9375 59.125 47.5 58.5203 47.5 57.7812V52.4062C47.5 51.6672 46.9375 51.0625 46.25 51.0625H33.75C33.0625 51.0625 32.5 51.6672 32.5 52.4062V57.7812C32.5 58.5203 33.0625 59.125 33.75 59.125Z" fill="#455A64"/>
<path d="M33.75 72.5625H46.25C46.9375 72.5625 47.5 71.9578 47.5 71.2188V65.8438C47.5 65.1047 46.9375 64.5 46.25 64.5H33.75C33.0625 64.5 32.5 65.1047 32.5 65.8438V71.2188C32.5 71.9578 33.0625 72.5625 33.75 72.5625Z" fill="#455A64"/>
<path d="M33.75 45.6875H46.25C46.9375 45.6875 47.5 45.0828 47.5 44.3438V38.9688C47.5 38.2297 46.9375 37.625 46.25 37.625H33.75C33.0625 37.625 32.5 38.2297 32.5 38.9688V44.3438C32.5 45.0828 33.0625 45.6875 33.75 45.6875Z" fill="#455A64"/>
<path d="M7.5 18.8125V75.25H20V18.8125H7.5ZM10 71.2188V66.1192C10 65.5213 10.675 65.2189 11.0687 65.6422L16.4375 71.4136C16.8312 71.8369 16.55 72.5625 15.9937 72.5625H11.25C10.5625 72.5625 10 71.9578 10 71.2188ZM16.4313 67.6175L12.1 62.9614C11.7063 62.5381 11.9875 61.8125 12.5437 61.8125H16.25C16.9375 61.8125 17.5 62.4172 17.5 63.1562V67.1405C17.5 67.7384 16.825 68.0408 16.4313 67.6175ZM10 57.7812V52.6817C10 52.0838 10.675 51.7814 11.0687 52.2047L16.4375 57.9761C16.8312 58.3994 16.55 59.125 15.9937 59.125H11.25C10.5625 59.125 10 58.5203 10 57.7812ZM16.4313 54.18L12.1 49.5239C11.7063 49.1006 11.9875 48.375 12.5437 48.375H16.25C16.9375 48.375 17.5 48.9797 17.5 49.7188V53.703C17.5 54.3009 16.825 54.6033 16.4313 54.18ZM10 44.3438V39.2442C10 38.6462 10.675 38.3439 11.0687 38.7672L16.4375 44.5386C16.8312 44.9619 16.55 45.6875 15.9937 45.6875H11.25C10.5625 45.6875 10 45.0828 10 44.3438ZM16.4313 40.7425L12.1 36.0864C11.7063 35.6631 11.9875 34.9375 12.5437 34.9375H16.25C16.9375 34.9375 17.5 35.5422 17.5 36.2812V40.2655C17.5 40.8634 16.825 41.1658 16.4313 40.7425ZM10 30.9062V25.8067C10 25.2087 10.675 24.9064 11.0687 25.3297L16.4375 31.1011C16.8312 31.5244 16.55 32.25 15.9937 32.25H11.25C10.5625 32.25 10 31.6453 10 30.9062ZM16.4313 27.305L12.1 22.6489C11.7063 22.2256 11.9875 21.5 12.5437 21.5H16.25C16.9375 21.5 17.5 22.1047 17.5 22.8438V26.828C17.5 27.4259 16.825 27.7283 16.4313 27.305ZM15.9937 18.8125H11.25H15.9937Z" fill="url(#paint1_linear)"/>
<path d="M17.5 5.375H5C5 3.89016 6.11875 2.6875 7.5 2.6875H20C21.3813 2.6875 22.5 3.89016 22.5 5.375H17.5Z" fill="#FFB300"/>
<path d="M65 31.2523C64.4813 31.2523 64.0625 31.0843 64.0625 30.5266V22.8404C64.0625 22.491 64.4813 22.0879 65 22.0879C65.5187 22.0879 65.9375 22.5448 65.9375 22.8404V30.5266C65.9375 31.0843 65.5187 31.2523 65 31.2523Z" fill="#FF9800"/>
<path opacity="0.2" d="M19.0625 17.1328V76.9297H8.4375V17.1328H19.0625ZM16.8687 28.5077C17.2837 28.5077 17.6818 28.3309 17.9758 28.0161C18.2698 27.7013 18.4358 27.2741 18.4375 26.828V22.8438C18.4375 21.547 17.4563 20.4922 16.25 20.4922H12.5437C11.9125 20.4922 11.3438 20.902 11.1 21.5269C10.8563 22.1584 10.9875 22.8773 11.4375 23.3544L15.7687 28.0105C16.0687 28.333 16.4563 28.5077 16.8687 28.5077ZM11.25 33.2578H15.9937C16.625 33.2578 17.1937 32.848 17.4375 32.2231C17.6812 31.5916 17.55 30.8727 17.1 30.3956L11.7313 24.6242C11.4375 24.3084 11.0438 24.1337 10.6313 24.1337C10.2163 24.1337 9.8182 24.3105 9.52418 24.6253C9.23016 24.9401 9.06415 25.3673 9.0625 25.8134V30.9062C9.0625 32.203 10.0438 33.2578 11.25 33.2578ZM16.8687 41.9452C17.2837 41.9452 17.6818 41.7684 17.9758 41.4536C18.2698 41.1388 18.4358 40.7116 18.4375 40.2655V36.2812C18.4375 34.9845 17.4563 33.9297 16.25 33.9297H12.5437C11.9125 33.9297 11.3438 34.3395 11.1 34.9644C10.8563 35.5959 10.9875 36.3148 11.4375 36.7919L15.7687 41.448C16.0687 41.7705 16.4563 41.9452 16.8687 41.9452ZM11.25 46.6953H15.9937C16.625 46.6953 17.1937 46.2855 17.4375 45.6606C17.6812 45.0291 17.55 44.3102 17.1 43.8331L11.7313 38.0617C11.4375 37.7459 11.0438 37.5712 10.6313 37.5712C10.2163 37.5712 9.8182 37.748 9.52418 38.0628C9.23016 38.3776 9.06415 38.8048 9.0625 39.2509V44.3438C9.0625 45.6405 10.0438 46.6953 11.25 46.6953ZM16.8687 55.3827C17.2837 55.3827 17.6818 55.2059 17.9758 54.8911C18.2698 54.5763 18.4358 54.1491 18.4375 53.703V49.7188C18.4375 48.422 17.4563 47.3672 16.25 47.3672H12.5437C11.9125 47.3672 11.3438 47.777 11.1 48.4019C10.8563 49.0334 10.9875 49.7523 11.4375 50.2294L15.7687 54.8855C16.0687 55.208 16.4563 55.3827 16.8687 55.3827ZM11.25 60.1328H15.9937C16.625 60.1328 17.1937 59.723 17.4375 59.0981C17.6812 58.4666 17.55 57.7477 17.1 57.2706L11.7313 51.4992C11.4375 51.1834 11.0438 51.0087 10.6313 51.0087C10.2163 51.0087 9.8182 51.1855 9.52418 51.5003C9.23016 51.8151 9.06415 52.2423 9.0625 52.6884V57.7812C9.0625 59.078 10.0438 60.1328 11.25 60.1328ZM16.8687 68.8202C17.2837 68.8202 17.6818 68.6434 17.9758 68.3286C18.2698 68.0138 18.4358 67.5866 18.4375 67.1405V63.1562C18.4375 61.8595 17.4563 60.8047 16.25 60.8047H12.5437C11.9125 60.8047 11.3438 61.2145 11.1 61.8394C10.8563 62.4709 10.9875 63.1898 11.4375 63.6669L15.7687 68.323C16.0687 68.6455 16.4563 68.8202 16.8687 68.8202ZM11.25 73.5703H15.9937C16.625 73.5703 17.1937 73.1605 17.4375 72.5356C17.6812 71.9041 17.55 71.1852 17.1 70.7081L11.7313 64.9367C11.4375 64.6209 11.0438 64.4462 10.6313 64.4462C10.2163 64.4462 9.8182 64.623 9.52418 64.9378C9.23016 65.2526 9.06415 65.6798 9.0625 66.1259V71.2188C9.0625 72.5155 10.0438 73.5703 11.25 73.5703ZM20 16.125H7.5V77.9375H20V16.125ZM16.8687 27.4998C16.7125 27.4998 16.5563 27.4394 16.4313 27.305L12.1 22.6489C11.7063 22.2256 11.9875 21.5 12.5437 21.5H16.25C16.9375 21.5 17.5 22.1047 17.5 22.8438V26.828C17.5 27.2311 17.1937 27.4998 16.8687 27.4998ZM11.25 32.25C10.5625 32.25 10 31.6453 10 30.9062V25.8067C10 25.4036 10.3063 25.1348 10.6313 25.1348C10.7875 25.1348 10.9437 25.1953 11.0687 25.3297L16.4375 31.1011C16.8312 31.5244 16.55 32.25 15.9937 32.25H11.25ZM16.8687 40.9373C16.7125 40.9373 16.5563 40.8769 16.4313 40.7425L12.1 36.0864C11.7063 35.6631 11.9875 34.9375 12.5437 34.9375H16.25C16.9375 34.9375 17.5 35.5422 17.5 36.2812V40.2655C17.5 40.6686 17.1937 40.9373 16.8687 40.9373ZM11.25 45.6875C10.5625 45.6875 10 45.0828 10 44.3438V39.2442C10 38.8411 10.3063 38.5723 10.6313 38.5723C10.7875 38.5723 10.9437 38.6328 11.0687 38.7672L16.4375 44.5386C16.8312 44.9619 16.55 45.6875 15.9937 45.6875H11.25ZM16.8687 54.3748C16.7125 54.3748 16.5563 54.3144 16.4313 54.18L12.1 49.5239C11.7063 49.1006 11.9875 48.375 12.5437 48.375H16.25C16.9375 48.375 17.5 48.9797 17.5 49.7188V53.703C17.5 54.1061 17.1937 54.3748 16.8687 54.3748ZM11.25 59.125C10.5625 59.125 10 58.5203 10 57.7812V52.6817C10 52.2786 10.3063 52.0098 10.6313 52.0098C10.7875 52.0098 10.9437 52.0703 11.0687 52.2047L16.4375 57.9761C16.8312 58.3994 16.55 59.125 15.9937 59.125H11.25ZM16.8687 67.8123C16.7125 67.8123 16.5563 67.7519 16.4313 67.6175L12.1 62.9614C11.7063 62.5381 11.9875 61.8125 12.5437 61.8125H16.25C16.9375 61.8125 17.5 62.4172 17.5 63.1562V67.1405C17.5 67.5436 17.1937 67.8123 16.8687 67.8123ZM11.25 72.5625C10.5625 72.5625 10 71.9578 10 71.2188V66.1192C10 65.7161 10.3063 65.4473 10.6313 65.4473C10.7875 65.4473 10.9437 65.5078 11.0687 65.6422L16.4375 71.4136C16.8312 71.8369 16.55 72.5625 15.9937 72.5625H11.25Z" fill="#424242"/>
<path d="M10 16.125H22.5C22.5 17.6098 21.3813 18.8125 20 18.8125H7.5C6.11875 18.8125 5 17.6098 5 16.125H10Z" fill="#FFB300"/>
<path d="M20 75.25H7.5C6.11875 75.25 5 76.4527 5 77.9375V83.3125H22.5V77.9375C22.5 76.4527 21.3813 75.25 20 75.25Z" fill="#FFB300"/>
<path opacity="0.2" d="M68.75 28.8496C68.925 28.8496 69.0625 28.9974 69.0625 29.1855V37.248C69.0625 37.4362 68.925 37.584 68.75 37.584H61.25C61.075 37.584 60.9375 37.4362 60.9375 37.248V29.1855C60.9375 28.9974 61.075 28.8496 61.25 28.8496H68.75ZM61.5625 36.9121H68.4375V29.5215H61.5625V36.9121ZM68.75 27.8418H61.25C60.5625 27.8418 60 28.4465 60 29.1855V37.248C60 37.9871 60.5625 38.5918 61.25 38.5918H68.75C69.4375 38.5918 70 37.9871 70 37.248V29.1855C70 28.8292 69.8683 28.4874 69.6339 28.2354C69.3995 27.9834 69.0815 27.8418 68.75 27.8418ZM62.5 35.9043V30.5293H67.5V35.9043H62.5Z" fill="#424242"/>
<path opacity="0.2" d="M66.8187 15.1172C66.6313 16.3669 66.0062 17.8719 65.625 18.013L65.2687 18.1473L65.1 18.5169C65.0688 18.5841 65.0437 18.6513 65.0187 18.7252L65.0437 18.2616L64.375 18.013C63.9937 17.8719 63.3687 16.3669 63.1812 15.1172H66.8187ZM64.9625 19.7397C65.0063 19.9278 65.0875 20.1025 65.2187 20.2705C65.2315 20.29 65.2462 20.308 65.2625 20.3242C65.1187 20.2369 65 20.1294 64.975 20.0756C64.9625 20.042 64.9625 19.8808 64.9625 19.7464V19.7397ZM66.7937 21.8964C66.8562 22.0711 66.8812 22.2727 66.875 22.528C66.8612 23.0372 66.6685 23.522 66.3358 23.8847C66.003 24.2475 65.5547 24.4613 65.0812 24.4831C65.5638 24.459 66.0192 24.2362 66.3531 23.861C66.6871 23.4857 66.8739 22.9868 66.875 22.4675C66.875 22.2659 66.85 22.0778 66.7937 21.8964ZM67.8125 14.1094H62.1875V14.4453C62.1875 15.7286 62.95 18.5437 64.0625 18.967L64.025 19.6053C64.025 19.9614 64.0062 20.2033 64.1062 20.4586C64.2687 20.8819 64.7125 21.1775 65 21.3052C65.475 21.5202 65.9375 21.9098 65.9375 22.4675C65.9375 23.0252 65.5187 23.4753 65 23.4753C64.4812 23.4753 64.0625 23.0252 64.0625 22.4675C64.0625 22.192 63.9875 22.0106 63.8812 21.8359C63.8125 21.7217 63.6937 21.6411 63.5437 21.5941C63.4375 21.5672 63.3375 21.547 63.2375 21.547C62.95 21.547 62.6938 21.668 62.5063 21.9031C62.2063 22.2861 62.1625 22.8908 62.3875 23.4417C62.5625 23.8583 62.8437 24.2614 63.2562 24.678C63.7687 25.202 64.4 25.4842 65.0313 25.4842H65.0437C66.5375 25.4775 67.7812 24.1539 67.8187 22.5481C67.8625 20.6467 66.4687 20.3041 65.9437 19.6255C65.75 19.3769 65.9437 18.967 65.9437 18.967C67.0562 18.5437 67.8187 15.7286 67.8187 14.4453V14.1094H67.8125Z" fill="#424242"/>
<path opacity="0.2" d="M50.625 28.8906V45.6875C50.625 46.8028 51.4625 47.7031 52.5 47.7031H67.5C68.5375 47.7031 69.375 46.8028 69.375 45.6875V45.0156H70.625V78.6094H29.375V28.8906H30.625V32.25C30.625 33.3653 31.4625 34.2656 32.5 34.2656H47.5C48.5375 34.2656 49.375 33.3653 49.375 32.25V28.8906H50.625ZM51.25 26.875H48.75C48.0625 26.875 47.5 27.4797 47.5 28.2188V32.25H32.5V28.2188C32.5 27.4797 31.9375 26.875 31.25 26.875H28.75C28.0625 26.875 27.5 27.4797 27.5 28.2188V80.625H72.5V45.0156C72.5 43.9003 71.6625 43 70.625 43H69.375C68.3375 43 67.5 43.9003 67.5 45.0156V45.6875H52.5V28.2188C52.5 27.4797 51.9375 26.875 51.25 26.875Z" fill="#424242"/>
<path opacity="0.2" d="M66.25 65.8438V71.2188H53.75V65.8438H66.25ZM66.25 64.5H53.75C53.0625 64.5 52.5 65.1047 52.5 65.8438V71.2188C52.5 71.9578 53.0625 72.5625 53.75 72.5625H66.25C66.9375 72.5625 67.5 71.9578 67.5 71.2188V65.8438C67.5 65.1047 66.9375 64.5 66.25 64.5Z" fill="#424242"/>
<path opacity="0.2" d="M66.25 52.4062V57.7812H53.75V52.4062H66.25ZM66.25 51.0625H53.75C53.0625 51.0625 52.5 51.6672 52.5 52.4062V57.7812C52.5 58.5203 53.0625 59.125 53.75 59.125H66.25C66.9375 59.125 67.5 58.5203 67.5 57.7812V52.4062C67.5 51.6672 66.9375 51.0625 66.25 51.0625Z" fill="#424242"/>
<path opacity="0.2" d="M46.25 52.4062V57.7812H33.75V52.4062H46.25ZM46.25 51.0625H33.75C33.0625 51.0625 32.5 51.6672 32.5 52.4062V57.7812C32.5 58.5203 33.0625 59.125 33.75 59.125H46.25C46.9375 59.125 47.5 58.5203 47.5 57.7812V52.4062C47.5 51.6672 46.9375 51.0625 46.25 51.0625Z" fill="#424242"/>
<path opacity="0.2" d="M46.25 65.8438V71.2188H33.75V65.8438H46.25ZM46.25 64.5H33.75C33.0625 64.5 32.5 65.1047 32.5 65.8438V71.2188C32.5 71.9578 33.0625 72.5625 33.75 72.5625H46.25C46.9375 72.5625 47.5 71.9578 47.5 71.2188V65.8438C47.5 65.1047 46.9375 64.5 46.25 64.5Z" fill="#424242"/>
<path opacity="0.2" d="M46.25 38.9688V44.3438H33.75V38.9688H46.25ZM46.25 37.625H33.75C33.0625 37.625 32.5 38.2297 32.5 38.9688V44.3438C32.5 45.0828 33.0625 45.6875 33.75 45.6875H46.25C46.9375 45.6875 47.5 45.0828 47.5 44.3438V38.9688C47.5 38.2297 46.9375 37.625 46.25 37.625Z" fill="#424242"/>
<path opacity="0.2" d="M20 3.69531C20.4144 3.69531 20.8118 3.87228 21.1049 4.18728C21.3979 4.50228 21.5625 4.92952 21.5625 5.375V6.02H5.9375V5.375C5.9375 4.92952 6.10212 4.50228 6.39515 4.18728C6.68817 3.87228 7.0856 3.69531 7.5 3.69531H20ZM20 2.6875H7.5C6.11875 2.6875 5 3.89016 5 5.375V7.02781H22.5V5.375C22.5 3.89016 21.3813 2.6875 20 2.6875Z" fill="#424242"/>
<path opacity="0.2" d="M21.5625 15.4844V16.1294C21.5625 16.5749 21.3979 17.0021 21.1049 17.3171C20.8118 17.6321 20.4144 17.8091 20 17.8091H7.5C7.0856 17.8091 6.68817 17.6321 6.39515 17.3171C6.10212 17.0021 5.9375 16.5749 5.9375 16.1294V15.4844H21.5625ZM22.5 14.4766H5V16.1294C5 17.6142 6.11875 18.8169 7.5 18.8169H20C21.3813 18.8169 22.5 17.6142 22.5 16.1294V14.4766Z" fill="#424242"/>
<path d="M65 31.2523C64.4813 31.2523 64.0625 31.0843 64.0625 30.5266V22.8404C64.0625 22.491 64.4813 22.0879 65 22.0879C65.5187 22.0879 65.9375 22.5448 65.9375 22.8404V30.5266C65.9375 31.0843 65.5187 31.2523 65 31.2523Z" fill="#FF9800"/>
<path d="M77.5 83.3125H2.5V80.625C2.5 79.1402 3.61875 77.9375 5 77.9375H75C76.3812 77.9375 77.5 79.1402 77.5 80.625V83.3125Z" fill="#FFB300"/>
<path d="M71.55 6.06703C71.347 5.84728 71.1055 5.67297 70.8395 5.55419C70.5734 5.4354 70.2881 5.3745 70 5.375H5C3.61875 5.375 2.5 6.57766 2.5 8.0625V13.4375C2.5 14.9223 3.61875 16.125 5 16.125H75.3063C76.5187 16.125 77.5 15.0702 77.5 13.7667V13.4375C77.5 12.8127 77.2688 12.2147 76.8562 11.7713L71.55 6.06703ZM5 12.0938V9.40625C5 8.66719 5.5625 8.0625 6.25 8.0625H11.25C11.9375 8.0625 12.5 8.66719 12.5 9.40625V12.0938C12.5 12.8328 11.9375 13.4375 11.25 13.4375H6.25C5.5625 13.4375 5 12.8328 5 12.0938ZM15 12.0938V9.40625C15 8.66719 15.5625 8.0625 16.25 8.0625H21.25C21.9375 8.0625 22.5 8.66719 22.5 9.40625V12.0938C22.5 12.8328 21.9375 13.4375 21.25 13.4375H16.25C15.5625 13.4375 15 12.8328 15 12.0938ZM25 12.0938V9.40625C25 8.66719 25.5625 8.0625 26.25 8.0625H31.25C31.9375 8.0625 32.5 8.66719 32.5 9.40625V12.0938C32.5 12.8328 31.9375 13.4375 31.25 13.4375H26.25C25.5625 13.4375 25 12.8328 25 12.0938ZM35 12.0938V9.40625C35 8.66719 35.5625 8.0625 36.25 8.0625H41.25C41.9375 8.0625 42.5 8.66719 42.5 9.40625V12.0938C42.5 12.8328 41.9375 13.4375 41.25 13.4375H36.25C35.5625 13.4375 35 12.8328 35 12.0938ZM45 12.0938V9.40625C45 8.66719 45.5625 8.0625 46.25 8.0625H51.25C51.9375 8.0625 52.5 8.66719 52.5 9.40625V12.0938C52.5 12.8328 51.9375 13.4375 51.25 13.4375H46.25C45.5625 13.4375 45 12.8328 45 12.0938ZM55 12.0938V9.40625C55 8.66719 55.5625 8.0625 56.25 8.0625H61.25C61.9375 8.0625 62.5 8.66719 62.5 9.40625V12.0938C62.5 12.8328 61.9375 13.4375 61.25 13.4375H56.25C55.5625 13.4375 55 12.8328 55 12.0938ZM65 12.0938V9.40625C65 8.66719 65.5625 8.0625 66.25 8.0625H69.3562C69.6875 8.0625 70.0062 8.2036 70.2375 8.45891L72.7375 11.1464C73.525 11.993 72.9688 13.4375 71.8562 13.4375H66.25C65.5625 13.4375 65 12.8328 65 12.0938Z" fill="url(#paint2_linear)"/>
<path opacity="0.2" d="M20 77.2656C20.3438 77.2656 20.625 77.568 20.625 77.9375C20.625 79.0528 21.4625 79.9531 22.5 79.9531H75C75.3438 79.9531 75.625 80.2555 75.625 80.625V81.2969H4.375V80.625C4.375 80.2555 4.65625 79.9531 5 79.9531C6.0375 79.9531 6.875 79.0528 6.875 77.9375C6.875 77.568 7.15625 77.2656 7.5 77.2656H20ZM20 75.25H7.5C6.11875 75.25 5 76.4527 5 77.9375C3.61875 77.9375 2.5 79.1402 2.5 80.625V83.3125H77.5V80.625C77.5 79.1402 76.3812 77.9375 75 77.9375H22.5C22.5 76.4527 21.3813 75.25 20 75.25Z" fill="#424242"/>
<path opacity="0.2" d="M70 6.38282C70.3375 6.38282 70.65 6.52391 70.8875 6.77922L76.1938 12.4834C76.4313 12.7388 76.5625 13.0747 76.5625 13.4375V13.7667C76.5625 14.5125 76 15.1172 75.3063 15.1172H5C4.5856 15.1172 4.18817 14.9402 3.89515 14.6252C3.60212 14.3102 3.4375 13.883 3.4375 13.4375V8.0625C3.4375 7.61702 3.60212 7.18979 3.89515 6.87478C4.18817 6.55978 4.5856 6.38282 5 6.38282H70ZM66.25 14.4453H71.8562C72.7438 14.4453 73.5375 13.8742 73.875 12.9941C74.2125 12.1139 74.0312 11.1061 73.4 10.4342L70.9 7.74672C70.6979 7.52762 70.4574 7.35368 70.1924 7.23491C69.9275 7.11614 69.6433 7.05489 69.3562 7.05469H66.25C65.0438 7.05469 64.0625 8.10953 64.0625 9.40625V12.0938C64.0625 13.3905 65.0438 14.4453 66.25 14.4453ZM56.25 14.4453H61.25C62.4562 14.4453 63.4375 13.3905 63.4375 12.0938V9.40625C63.4375 8.10953 62.4562 7.05469 61.25 7.05469H56.25C55.0438 7.05469 54.0625 8.10953 54.0625 9.40625V12.0938C54.0625 13.3905 55.0438 14.4453 56.25 14.4453ZM46.25 14.4453H51.25C52.4562 14.4453 53.4375 13.3905 53.4375 12.0938V9.40625C53.4375 8.10953 52.4562 7.05469 51.25 7.05469H46.25C45.0438 7.05469 44.0625 8.10953 44.0625 9.40625V12.0938C44.0625 13.3905 45.0438 14.4453 46.25 14.4453ZM36.25 14.4453H41.25C42.4562 14.4453 43.4375 13.3905 43.4375 12.0938V9.40625C43.4375 8.10953 42.4562 7.05469 41.25 7.05469H36.25C35.0438 7.05469 34.0625 8.10953 34.0625 9.40625V12.0938C34.0625 13.3905 35.0438 14.4453 36.25 14.4453ZM26.25 14.4453H31.25C32.4562 14.4453 33.4375 13.3905 33.4375 12.0938V9.40625C33.4375 8.10953 32.4562 7.05469 31.25 7.05469H26.25C25.0438 7.05469 24.0625 8.10953 24.0625 9.40625V12.0938C24.0625 13.3905 25.0438 14.4453 26.25 14.4453ZM16.25 14.4453H21.25C22.4562 14.4453 23.4375 13.3905 23.4375 12.0938V9.40625C23.4375 8.10953 22.4562 7.05469 21.25 7.05469H16.25C15.0437 7.05469 14.0625 8.10953 14.0625 9.40625V12.0938C14.0625 13.3905 15.0437 14.4453 16.25 14.4453ZM6.25 14.4453H11.25C12.4563 14.4453 13.4375 13.3905 13.4375 12.0938V9.40625C13.4375 8.10953 12.4563 7.05469 11.25 7.05469H6.25C5.04375 7.05469 4.0625 8.10953 4.0625 9.40625V12.0938C4.0625 13.3905 5.04375 14.4453 6.25 14.4453ZM70 5.375H5C3.61875 5.375 2.5 6.57766 2.5 8.0625V13.4375C2.5 14.9223 3.61875 16.125 5 16.125H75.3063C76.5187 16.125 77.5 15.0702 77.5 13.7667V13.4375C77.5 12.8127 77.2688 12.2147 76.8562 11.7713L71.55 6.06703C71.347 5.84728 71.1055 5.67297 70.8395 5.55419C70.5734 5.4354 70.2881 5.3745 70 5.375ZM66.25 13.4375C65.5625 13.4375 65 12.8328 65 12.0938V9.40625C65 8.66719 65.5625 8.0625 66.25 8.0625H69.3562C69.6875 8.0625 70.0062 8.2036 70.2375 8.45891L72.7375 11.1464C73.525 11.993 72.9688 13.4375 71.8562 13.4375H66.25ZM56.25 13.4375C55.5625 13.4375 55 12.8328 55 12.0938V9.40625C55 8.66719 55.5625 8.0625 56.25 8.0625H61.25C61.9375 8.0625 62.5 8.66719 62.5 9.40625V12.0938C62.5 12.8328 61.9375 13.4375 61.25 13.4375H56.25ZM46.25 13.4375C45.5625 13.4375 45 12.8328 45 12.0938V9.40625C45 8.66719 45.5625 8.0625 46.25 8.0625H51.25C51.9375 8.0625 52.5 8.66719 52.5 9.40625V12.0938C52.5 12.8328 51.9375 13.4375 51.25 13.4375H46.25ZM36.25 13.4375C35.5625 13.4375 35 12.8328 35 12.0938V9.40625C35 8.66719 35.5625 8.0625 36.25 8.0625H41.25C41.9375 8.0625 42.5 8.66719 42.5 9.40625V12.0938C42.5 12.8328 41.9375 13.4375 41.25 13.4375H36.25ZM26.25 13.4375C25.5625 13.4375 25 12.8328 25 12.0938V9.40625C25 8.66719 25.5625 8.0625 26.25 8.0625H31.25C31.9375 8.0625 32.5 8.66719 32.5 9.40625V12.0938C32.5 12.8328 31.9375 13.4375 31.25 13.4375H26.25ZM16.25 13.4375C15.5625 13.4375 15 12.8328 15 12.0938V9.40625C15 8.66719 15.5625 8.0625 16.25 8.0625H21.25C21.9375 8.0625 22.5 8.66719 22.5 9.40625V12.0938C22.5 12.8328 21.9375 13.4375 21.25 13.4375H16.25ZM6.25 13.4375C5.5625 13.4375 5 12.8328 5 12.0938V9.40625C5 8.66719 5.5625 8.0625 6.25 8.0625H11.25C11.9375 8.0625 12.5 8.66719 12.5 9.40625V12.0938C12.5 12.8328 11.9375 13.4375 11.25 13.4375H6.25Z" fill="#424242"/>
<path opacity="0.2" d="M65 22.7598C65.1437 22.7598 65.2625 22.8605 65.3125 22.921V30.5401C65.275 30.5535 65.1812 30.5804 65 30.5804C64.8188 30.5804 64.725 30.5535 64.6875 30.5401V22.8941C64.7312 22.8471 64.8438 22.7598 65 22.7598ZM65 22.0879C64.4813 22.0879 64.0625 22.491 64.0625 22.8404V30.5266C64.0625 31.0843 64.4813 31.2523 65 31.2523C65.5187 31.2523 65.9375 31.0843 65.9375 30.5266V22.8404C65.9375 22.5448 65.5187 22.0879 65 22.0879Z" fill="#424242"/>
<defs>
<radialGradient id="paint0_radial" cx="0" cy="0" r="1" gradientUnits="userSpaceOnUse" gradientTransform="translate(51.6669 33.4815) scale(42.4025 45.5827)">
<stop stop-color="#E0E0E0"/>
<stop offset="0.229" stop-color="#D7D7D7"/>
<stop offset="0.603" stop-color="#BFBFBF"/>
<stop offset="1" stop-color="#9E9E9E"/>
</radialGradient>
<linearGradient id="paint1_linear" x1="13.75" y1="19.0362" x2="13.75" y2="76.5198" gradientUnits="userSpaceOnUse">
<stop offset="0.017" stop-color="#FFA726"/>
<stop offset="0.4" stop-color="#FC991A"/>
<stop offset="1" stop-color="#F57C00"/>
</linearGradient>
<linearGradient id="paint2_linear" x1="40" y1="5.15127" x2="40" y2="20.3182" gradientUnits="userSpaceOnUse">
<stop offset="0.017" stop-color="#FFA726"/>
<stop offset="0.4" stop-color="#FC991A"/>
<stop offset="1" stop-color="#F57C00"/>
</linearGradient>
</defs>
</svg>
